<?xml version="1.0" standalone="no"?>
<!DOCTYPE svg PUBLIC "-//W3C//DTD SVG 20010904//EN"
 "http://www.w3.org/TR/2001/REC-SVG-20010904/DTD/svg10.dtd">
<svg version="1.0" xmlns="http://www.w3.org/2000/svg"
 width="260.000000pt" height="260.000000pt" viewBox="0 0 260.000000 260.000000"
 preserveAspectRatio="xMidYMid meet">
<metadata>
Created by potrace 1.14, written by Peter Selinger 2001-2017
</metadata>
<g transform="translate(0.000000,260.000000) scale(0.100000,-0.100000)"
fill="#000000" stroke="none">
<path d="M1002 2073 c-4 -1 -64 -3 -133 -5 -123 -4 -129 -5 -202 -41 -84 -41
-164 -119 -196 -191 -43 -93 -44 -111 -44 -641 0 -428 3 -518 15 -560 19 -62
50 -121 84 -160 l26 -30 -94 -5 c-123 -7 -142 -19 -125 -82 5 -18 16 -30 32
-34 32 -8 1855 2 1876 11 37 14 41 85 6 107 -7 4 -54 8 -105 8 l-93 0 21 23
c36 37 71 104 87 164 13 49 16 139 16 563 0 451 -2 511 -17 565 -42 145 -161
259 -307 295 -36 8 -816 21 -847 13z"/>
<path d="M2500 453 c-8 -2 -23 -15 -33 -29 -18 -24 -18 -26 0 -57 24 -41 63
-47 92 -16 28 30 27 54 -4 84 -24 25 -28 26 -55 18z"/>
</g>
</svg>
